<svg xmlns="http://www.w3.org/2000/svg" version="1.1" xmlns:xlink="http://www.w3.org/1999/xlink" width="1000" height="1000"><g clip-path="url(#SvgjsClipPath1097)"><rect width="1000" height="1000" fill="#ffffff"></rect><g transform="matrix(1.953125,0,0,1.953125,0,0)"><svg xmlns="http://www.w3.org/2000/svg" id="Layer_1" viewBox="0 0 512 512" width="512" height="512"><path d="M218.53,461.62l-20.58.07c-6.08.02-11.71.47-18.16-.2l29.83-37.58,12.14-15.92-32.85-43.73-17.7-23.92c-9.36-12.65-14.05-27.29-15.27-43.01l-2.13-27.3-.43-13.41v-7.42c-.03-14.06,1.3-27.75,4.39-41.51l5.81-25.91c1.63-7.26,4.3-13.8,8.18-20.42-4.62-8.33-6.04-17.18-4.64-26.48,1.15-7.63,3.39-15.21,8.76-20.87,2.57-2.7,4.72-5.11,5.06-9.12.54-6.31.42-12.68-.62-19.04-1.95-11.92-15.04-14.51-16.56-20.23-.61-2.31-.48-5.5,1.84-6.69,1.85-.95,4.85.12,6.79.93,7.14,2.98,13.94,5.79,21.47,7.64,11.22,2.76,22.27,4.07,33.81,4.66,8.6.44,17.04.72,25.6.04l8.16-.65c21.8-1.73,43.17-5.57,63.77-13.09,5.61-2.05,14.46-7.19,17.09-2.31,1.76,3.25-1.19,6.69-4.46,9.72-9.14,8.49-9.03,15.07-9.7,27.25-.32,5.89-.75,11.77,0,17.6.43,3.34,3.54,5.95,5.25,8.65,5.95,9.45,6.97,26.42,2.71,36.73-.9,2.17-.98,2.85.73,4.72,5.68,6.22,8.56,15.53,10.6,24.13l5.59,23.53c3.23,13.59,5.29,26.92,5.29,40.88v31.97s-.55,11.84-.55,11.84c-.52,11.02-2.36,21.51-6.91,31.64-3.71,8.26-8.49,15.44-13.28,23.09l-14.64,23.39-22.85,34.79c-.54.82-1.26,2.89-.73,3.62l23.56,32.14,14.09,19.49c-4.03,1.01-7.11.21-10.84.21l-82.35-.02-15.84.12-9.44-.06ZM298.7,100.99c4.05-.88,7.8-.67,11.75.21l7.3,1.63,1.17-14.76c.33-4.14.66-8.09.34-12.44-14.63,3.93-28.94,6.13-43.97,7.11-.34.02-1.44.67-1.22.91s.74.72,1.07.92c5.56,3.35,10.74,6.76,15.88,10.63l7.69,5.79ZM234.18,85.25l-7.82-.61-8.83-.65c-9.87-.73-18.81-3.38-28.96-5.94-.23,3.81.03,7.65.29,11.57l.42,6.32.41,6.43c4.79-1.05,8.98-2.54,13.35-1.87,3.22.5,6.34,1.37,9.56.97,6.39-7.17,14.47-9.95,21.58-16.21ZM267.06,136.32c.38.09,1.35.74,1.53.43l.9-1.53c.86-8.17,3.81-15.71,9.18-21.86l6.73-6.5c-2.56-2.54-4.55-5.12-7.62-6.76-12.71-6.8-28.14-7.85-41.45-2.14-5.67,2.43-9.66,6.94-14.22,11.01l6.65,6.91c4.71,5.9,6.23,13.17,7.4,20.69,10.46-2.58,20.74-2.76,30.9-.25ZM218.81,164.9c10.68-10.09,13.72-26.21,7.54-39.21-4.46-9.36-12.95-16.01-23.35-16.61-6.73-.39-13.52,2-18.49,6.15-12.46,10.4-13.18,28.89-6.1,42.66,3.64,7.09,10.39,12.04,17.36,13.38,8.58,1.65,16.68-.34,23.05-6.37ZM323.21,163.52c10.68-11.6,10.77-31.39,2.08-43.82-5.28-7.56-13.98-11.76-23.19-10.56-6.06.79-12.14,2.49-16.52,6.96-12.1,12.31-12.51,35.27-1.05,47.47,9.23,9.82,28.64,10.85,38.68-.05ZM254.03,176.07c7.57-8.21,13.39-16.83,17.15-27.25-10.2-5.37-21.88-6.02-32.26-1.92l-4.04,2.68c5.18,8.93,10.66,20.65,19.15,26.48ZM274.97,240.04l-.52-10.76c-.38-7.84-.96-15.67.02-23.45l1.68-13.38c.88-6.98,4.16-13.2,8.11-19l-9.92-11.26c-5.48,10.09-12.03,18.78-20.88,25.97-8.56-8.38-15.76-17.64-22.17-27.4l-3.9,5.77-3.75,4.28c11.74,11.68,12.39,32.21,12.8,48.33l.26,10.41c.12,4.91-.49,9.65-.09,14.49l38.03-.04c.45-1.21.39-2.48.32-3.95ZM333.64,307.44l-.44,6.39-.17,11.41c-.04,2.71,1.02,5.19,2.34,7.62,1.11-1.07,1.95-1.92,2.45-2.86,3.89-7.3,6.61-14.83,8.19-23,3.63-18.77,3.54-40.74,2.85-60.08-.44-12.32-2.07-24.09-4.99-36.06l-6.52-26.74c-1.46-6-3.97-11.44-7.59-16.6-9.7,10.16-22.43,14.17-36.46,10.2l-3.53,6.55c-2.91,5.39-5.57,10.9-6.18,17.14s-.44,12.07-.06,18.21l.47,7.82.3,16.36,17.1,17.35,21.92,21.77c9.07,9.01,11.51,7.56,10.34,24.53ZM185.16,287.9l8.71-9.26,17.14-19.77,5.51-5.99,10.37-10.85.35-31.26c.04-3.49-.06-7.27-.64-10.7-1.33-7.89-5.06-15.19-9.17-21.8-1.21-1.95-2.7-1.78-4.43-1.14-8.21,3.03-17.44,2.83-25.4-.86-3.4-1.57-6.26-3.7-9.68-5.9-4.23,8.85-6.22,17.92-8.28,27.38-2.9,13.29-6.06,26.17-6.4,39.77l-.41,16.49.39,16.34,1.06,16.66c.92,14.57,5.06,36.16,15.21,47,1.98-5.93,1.81-11.46,1.53-17.18l-.5-10.39c-.22-4.55-.82-9.06.75-13.47.6-1.69,2.47-3.59,3.88-5.08ZM300.27,273.45l-7.85-8.53-6.06-6.96c-1.8-2.39-3.83-4.47-6.48-6.1l-52.39.11-31.46,39.93,120.27.03-16.03-18.48ZM326.3,300.91h-71.3s-67.12-.08-67.12-.08l.07,50.32h138.29s.06-50.24.06-50.24ZM289.8,397.39l8.16-11.08c6.5-8.77,12.72-17.24,18.91-27.19l-102.34-.03-14.03.71,24,29.68c2.08,2.57,3.74,5.75,6.58,7.4,3.03,1.77,6.58.66,9.91.65l48.83-.14ZM316.18,449.97l-11.68-17.23-11.63-16.46c-1.16-1.65-2.55-2.91-4.2-4.28l-16.08.38-41.5.2-25.07,31.03c-1.71,2.11-3.59,3.9-4.8,6.41l114.96-.04Z" style="fill:#803b1f;"></path><path d="M274.87,331.56l.08-7.2,14.49-.06v24.42s-5.58-.11-5.58-.11l-.98-2.71-4.21,3.02c-3.7,1.63-7.96,1.23-11.75-.14-7.01-2.54-8.45-18.74-7.41-26.23l1.4-10.1c.56-4.03,3.62-6.77,7.61-8.12,5.83-1.98,13.02-.84,17.69,3.28,3.1,2.74,4.3,6.66,3.37,10.57l-8.04.43c.36-4.68-2.59-8.74-7.24-8.81-6.26-.1-6.63,12.51-5.97,19.91.47,5.33.66,12.13,4.91,13.3,1.87.52,4.46-.17,5.6-1.62,2.24-2.84,2.69-6.06,2.02-9.65l-5.99-.18Z" style="fill:#369368;"></path><path d="M194.63,344.14c-2.47-3.46-2.14-6.98-1.66-10.74l8.39-.07.64,5.64c.17,1.49,1.04,3.55,2.76,4.02,1.63.45,5.05-.16,6-1.42,2.29-3.03.97-7.22-1.81-9.07l-5.95-3.95c-2.94-1.95-6.35-3.62-8.18-6.92-2.3-4.16-2.12-10.21.95-13.96,3.62-4.42,9.8-4.71,14.98-3.57,6.65,1.47,10.57,7.54,8.56,14.01l-7.45.05-1.21-5.13c-.62-2.65-3.95-3.16-6.21-2.23-1.99.82-3.61,3.52-2.08,6.04,2.86,4.72,12.62,7.18,16.79,13.83,3.07,4.9,1.79,12.94-2.78,16.75-6.56,5.47-16.96,3.41-21.75-3.3Z" style="fill:#369368;"></path><path d="M244.71,337.68c-3.4-.35-5.96-.32-9.31.11l-2.23,10.96-8.45.03,1.21-6.93,8.47-37.35,11.5-.06,10.28,44.31-9.07-.05-2.39-11.03ZM243.28,330.53l-2.95-16.95-3.36,17.11,6.31-.15Z" style="fill:#369368;"></path><path d="M319.28,329.14l-14.13-.07-.04,11.7,15.14.25c.33,2.38.39,4.92.19,7.74l-23.8.04v-44.34s23.42-.17,23.42-.17l.06,7.71-10-.07-4.98.6-.02,9.32,13.84.03.3,7.26Z" style="fill:#369368;"></path><path d="M317.78,157.15c-7.22,8.32-22.2,7.57-28.56-1.75-7.06-10.34-6.64-26.39,2.81-32.78,6.62-4.48,15.58-5.38,22.45-1.27,10.7,6.41,12.24,25.49,3.3,35.8ZM306.95,145.59c2.39-2.46,2.47-6.63.94-9.29-1.35-2.36-4.7-2.17-6.58-1.12-2.23,1.24-2.9,3.33-2.49,6.16.24,1.7,1.39,3.56,2.61,4.45,1.34.98,4.26,1.12,5.53-.2Z"></path><path d="M215.82,156.12c-7.21,9.27-21.79,7.98-27.32,1.77-10.01-11.24-8.3-32.83,4.69-37.5,10.69-3.84,21.55-.93,26.05,9.47,3.74,8.65,2.44,18.72-3.42,26.26ZM206.34,138.21c-.66-2.61-2.95-4.56-5.99-3.61-4.13,1.3-5.83,7.26-2.81,10.62,1.91,2.14,5.36,1.42,7.1.04,2.3-1.82,2.53-3.78,1.7-7.05Z"></path></svg></g></g><defs><clipPath id="SvgjsClipPath1097"><rect width="1000" height="1000" x="0" y="0" rx="500" ry="500"></rect></clipPath></defs></svg>